# 3ds Max Wavefront OBJ Exporter v0.97b - (c)2007 guruware
# File Created: 06.09.2013 13:10:50

mtllib 3.mtl

#
# object Cylinder001
#

v  40.0000 0.0000 -0.0000
v  32.3607 0.0000 -23.5114
v  32.3607 10.0000 -23.5114
v  40.0000 10.0000 -0.0000
v  12.3607 0.0000 -38.0423
v  12.3607 10.0000 -38.0423
v  -12.3607 0.0000 -38.0423
v  -12.3607 10.0000 -38.0423
v  -32.3607 0.0000 -23.5114
v  -32.3607 10.0000 -23.5114
v  -40.0000 0.0000 0.0000
v  -40.0000 10.0000 0.0000
v  -32.3607 0.0000 23.5114
v  -32.3607 10.0000 23.5114
v  -12.3607 0.0000 38.0423
v  -12.3607 10.0000 38.0423
v  12.3607 0.0000 38.0423
v  12.3607 10.0000 38.0423
v  32.3607 0.0000 23.5114
v  32.3607 10.0000 23.5114
v  0.0000 97.6505 -0.0000
v  2.7665 97.6505 2.0100
v  3.4196 97.6505 -0.0000
v  2.7665 97.6505 -2.0100
v  1.0567 97.6505 -3.2523
v  -1.0567 97.6505 -3.2523
v  -2.7665 97.6505 -2.0100
v  -3.4196 97.6505 -0.0000
v  -2.7665 97.6505 2.0100
v  -1.0567 97.6505 3.2523
v  1.0567 97.6505 3.2523
v  7.3216 11.0000 -5.3194
v  9.0499 11.0000 -0.0000
v  2.7966 11.0000 -8.6070
v  -2.7966 11.0000 -8.6070
v  -7.3216 11.0000 -5.3194
v  -9.0499 11.0000 0.0000
v  -7.3216 11.0000 5.3194
v  -2.7966 11.0000 8.6070
v  2.7966 11.0000 8.6070
v  7.3216 11.0000 5.3194
v  4.2681 36.0521 -3.1009
v  5.2756 36.0521 -0.0000
v  1.6303 36.0521 -5.0174
v  -1.6302 36.0521 -5.0174
v  -4.2680 36.0521 -3.1009
v  -5.2756 36.0521 -0.0000
v  -4.2680 36.0521 3.1009
v  -1.6302 36.0521 5.0174
v  1.6303 36.0521 5.0174
v  4.2681 36.0521 3.1009
v  8.0630 57.7521 -5.8581
v  9.9664 57.7521 -0.0000
v  3.0798 57.7521 -9.4786
v  -3.0798 57.7521 -9.4786
v  -8.0630 57.7521 -5.8581
v  -9.9664 57.7521 0.0000
v  -8.0630 57.7521 5.8581
v  -3.0798 57.7521 9.4786
v  3.0798 57.7521 9.4786
v  8.0630 57.7521 5.8581
v  31.3097 58.7521 -22.7478
v  38.7009 58.7521 -0.0000
v  11.9592 58.7521 -36.8067
v  -11.9592 58.7521 -36.8067
v  -31.3097 58.7521 -22.7478
v  -38.7009 58.7521 0.0000
v  -31.3097 58.7521 22.7478
v  -11.9592 58.7521 36.8067
v  11.9592 58.7521 36.8067
v  31.3097 58.7521 22.7478
v  39.3047 77.9129 -28.5565
v  48.5833 77.9129 -0.0000
v  15.0131 77.9129 -46.2055
v  -15.0131 77.9129 -46.2055
v  -39.3047 77.9129 -28.5565
v  -48.5833 77.9129 0.0000
v  -39.3047 77.9129 28.5566
v  -15.0131 77.9129 46.2055
v  15.0131 77.9129 46.2055
v  39.3047 77.9129 28.5565
v  29.8273 74.2505 -21.6708
v  36.8686 74.2505 -0.0000
v  11.3930 74.2505 -35.0641
v  -11.3930 74.2505 -35.0641
v  -29.8273 74.2505 -21.6708
v  -36.8686 74.2505 0.0000
v  -29.8273 74.2505 21.6708
v  -11.3930 74.2505 35.0641
v  11.3930 74.2505 35.0641
v  29.8273 74.2505 21.6708
v  2.7665 94.6505 -2.0100
v  3.4196 94.6505 -0.0000
v  1.0567 94.6505 -3.2523
v  -1.0567 94.6505 -3.2523
v  -2.7665 94.6505 -2.0100
v  -3.4196 94.6505 -0.0000
v  -2.7665 94.6505 2.0100
v  -1.0567 94.6505 3.2523
v  1.0567 94.6505 3.2523
v  2.7665 94.6505 2.0100
v  -22.2497 57.8089 29.4065
v  -28.6579 79.1729 39.0105
v  -37.0747 76.1690 30.3492
v  -31.3466 59.2249 24.7851
v  -14.0024 59.2249 37.3864
v  -18.0612 76.1690 45.2480
v  -34.8428 57.8089 -12.0736
v  -45.9570 79.1729 -15.2003
v  -40.3205 76.1690 -25.8817
v  -33.2587 59.2249 -22.1534
v  -39.8836 59.2249 -1.7640
v  -48.6146 76.1690 -3.1949
v  0.7157 57.8089 -36.8684
v  0.2549 79.1729 -48.4049
v  12.1553 76.1690 -46.3450
v  10.7917 59.2249 -38.4766
v  -10.6470 59.2249 -38.4766
v  -11.9843 76.1690 -47.2225
v  35.2851 57.8089 -10.7123
v  46.1145 79.1729 -14.7155
v  47.8329 76.1690 -2.7610
v  39.9283 59.2249 -1.6265
v  33.3034 59.2249 -22.0158
v  41.2080 76.1690 -25.9903
v  21.0917 57.8089 30.2478
v  28.2455 79.1729 39.3102
v  17.4071 76.1690 44.6386
v  13.8854 59.2249 37.4714
v  31.2296 59.2249 24.8701
v  37.4522 76.1690 31.1597
# 131 vertices

vn 1.0000 0.0000 -0.0000
vn 0.8090 0.0000 -0.5878
vn 0.3090 0.0000 -0.9511
vn -0.3090 0.0000 -0.9511
vn -0.8090 0.0000 -0.5878
vn -1.0000 0.0000 0.0000
vn -0.8090 0.0000 0.5878
vn -0.3090 0.0000 0.9511
vn 0.3090 0.0000 0.9511
vn 0.8090 0.0000 0.5878
vn 0.0000 1.0000 -0.0000
vn 0.0323 0.9994 -0.0105
vn 0.0200 0.9994 -0.0275
vn -0.0000 0.9994 -0.0340
vn -0.0200 0.9994 -0.0275
vn -0.0323 0.9994 -0.0105
vn -0.0323 0.9994 0.0105
vn -0.0200 0.9994 0.0275
vn 0.0000 0.9994 0.0340
vn 0.0200 0.9994 0.0275
vn 0.0323 0.9994 0.0105
vn 0.9414 0.1418 -0.3059
vn 0.5818 0.1418 -0.8008
vn -0.0000 0.1418 -0.9899
vn -0.5818 0.1418 -0.8008
vn -0.9414 0.1418 -0.3059
vn -0.9414 0.1418 0.3059
vn -0.5818 0.1418 0.8008
vn 0.0000 0.1418 0.9899
vn 0.5818 0.1418 0.8008
vn 0.9414 0.1418 0.3059
vn 0.9316 -0.2014 -0.3027
vn 0.5757 -0.2014 -0.7924
vn -0.0000 -0.2014 -0.9795
vn -0.5757 -0.2014 -0.7924
vn -0.9316 -0.2014 -0.3027
vn -0.9316 -0.2014 0.3027
vn -0.5757 -0.2014 0.7924
vn 0.0000 -0.2014 0.9795
vn 0.5757 -0.2014 0.7924
vn 0.9316 -0.2014 0.3027
vn 0.0348 -0.9993 -0.0113
vn 0.0215 -0.9993 -0.0296
vn -0.0000 -0.9993 -0.0366
vn -0.0215 -0.9993 -0.0296
vn -0.0348 -0.9993 -0.0113
vn -0.0348 -0.9993 0.0113
vn -0.0215 -0.9993 0.0296
vn 0.0000 -0.9993 0.0366
vn 0.0215 -0.9993 0.0296
vn 0.0348 -0.9993 0.0113
vn 0.8539 -0.4404 -0.2774
vn 0.5277 -0.4404 -0.7263
vn -0.0000 -0.4404 -0.8978
vn -0.5277 -0.4404 -0.7263
vn -0.8539 -0.4404 -0.2774
vn -0.8539 -0.4404 0.2774
vn -0.5277 -0.4404 0.7263
vn 0.0000 -0.4404 0.8978
vn 0.5277 -0.4404 0.7263
vn 0.8539 -0.4404 0.2774
vn -0.2970 0.9500 0.0965
vn -0.1836 0.9500 0.2526
vn 0.0000 0.9500 0.3123
vn 0.1836 0.9500 0.2526
vn 0.2970 0.9500 0.0965
vn 0.2970 0.9500 -0.0965
vn 0.1836 0.9500 -0.2526
vn 0.0000 0.9500 -0.3123
vn -0.1836 0.9500 -0.2526
vn -0.2970 0.9500 -0.0965
vn 0.5134 0.8418 -0.1668
vn 0.3173 0.8418 -0.4367
vn -0.0000 0.8418 -0.5398
vn -0.3173 0.8418 -0.4367
vn -0.5134 0.8418 -0.1668
vn -0.5134 0.8418 0.1668
vn -0.3173 0.8418 0.4367
vn 0.0000 0.8418 0.5398
vn 0.3173 0.8418 0.4367
vn 0.5134 0.8418 0.1668
vn 0.9511 0.0000 -0.3090
vn 0.5878 0.0000 -0.8090
vn 0.0000 0.0000 -1.0000
vn -0.5878 0.0000 -0.8090
vn -0.9511 0.0000 -0.3090
vn -0.9511 0.0000 0.3090
vn -0.5878 0.0000 0.8090
vn 0.0000 0.0000 1.0000
vn 0.5878 0.0000 0.8090
vn 0.9511 0.0000 0.3090
vn -0.5324 -0.4559 0.7132
vn -0.5484 -0.4684 0.6927
vn -0.5248 -0.4605 0.7159
vn -0.4627 -0.4139 0.7840
vn -0.5621 -0.4684 0.6816
vn -0.5439 -0.4569 0.7039
vn -0.8428 -0.4559 -0.2859
vn -0.8283 -0.4684 -0.3075
vn -0.8431 -0.4605 -0.2778
vn -0.8886 -0.4139 -0.1978
vn -0.8220 -0.4684 -0.3239
vn -0.8375 -0.4569 -0.2997
vn 0.0115 -0.4559 -0.8899
vn 0.0365 -0.4684 -0.8828
vn 0.0037 -0.4605 -0.8877
vn -0.0865 -0.4139 -0.9062
vn 0.0541 -0.4684 -0.8818
vn 0.0262 -0.4569 -0.8891
vn 0.8499 -0.4559 -0.2641
vn 0.8508 -0.4684 -0.2381
vn 0.8454 -0.4605 -0.2708
vn 0.8351 -0.4139 -0.3623
vn 0.8554 -0.4684 -0.2211
vn 0.8537 -0.4569 -0.2498
vn 0.5138 -0.4559 0.7267
vn 0.4894 -0.4684 0.7356
vn 0.5187 -0.4605 0.7203
vn 0.6026 -0.4139 0.6823
vn 0.4746 -0.4684 0.7452
vn 0.5014 -0.4569 0.7348
# 121 vertex normals

vt 0.3677 0.5141 0.0000
vt 0.6626 0.5141 0.0000
vt 0.6626 0.6286 0.0000
vt 0.3677 0.6286 0.0000
vt 0.5649 0.9440 0.0000
vt 0.5511 0.9313 0.0000
vt 0.5611 0.9255 0.0000
vt 0.5725 0.9267 0.0000
vt 0.5810 0.9346 0.0000
vt 0.5834 0.9460 0.0000
vt 0.5787 0.9566 0.0000
vt 0.5688 0.9625 0.0000
vt 0.5573 0.9612 0.0000
vt 0.5488 0.9534 0.0000
vt 0.5464 0.9420 0.0000
vt 0.2474 0.6846 0.0000
vt 0.2881 0.6890 0.0000
vt 0.2671 0.7366 0.0000
vt 0.2579 0.7356 0.0000
vt 0.3184 0.7169 0.0000
vt 0.2740 0.7429 0.0000
vt 0.3269 0.7576 0.0000
vt 0.2759 0.7521 0.0000
vt 0.3102 0.7956 0.0000
vt 0.2721 0.7607 0.0000
vt 0.2747 0.8163 0.0000
vt 0.2641 0.7654 0.0000
vt 0.2339 0.8119 0.0000
vt 0.2549 0.7644 0.0000
vt 0.2036 0.7840 0.0000
vt 0.2480 0.7581 0.0000
vt 0.1951 0.7433 0.0000
vt 0.2461 0.7488 0.0000
vt 0.2119 0.7053 0.0000
vt 0.2499 0.7403 0.0000
vt 0.4997 0.6966 0.0000
vt 0.4997 0.7018 0.0000
vt 0.4338 0.7018 0.0000
vt 0.4338 0.6966 0.0000
vt 0.4997 0.7145 0.0000
vt 0.4338 0.7145 0.0000
vt 0.4997 0.7269 0.0000
vt 0.4338 0.7269 0.0000
vt 0.4997 0.7393 0.0000
vt 0.4338 0.7393 0.0000
vt 0.4997 0.7521 0.0000
vt 0.4338 0.7521 0.0000
vt 0.4997 0.7649 0.0000
vt 0.4338 0.7649 0.0000
vt 0.4997 0.7776 0.0000
vt 0.4338 0.7776 0.0000
vt 0.4997 0.7903 0.0000
vt 0.4338 0.7903 0.0000
vt 0.4997 0.8032 0.0000
vt 0.4338 0.8032 0.0000
vt 0.4997 0.8174 0.0000
vt 0.4338 0.8174 0.0000
vt 0.3762 0.7018 0.0000
vt 0.3762 0.6966 0.0000
vt 0.3762 0.7145 0.0000
vt 0.3762 0.7269 0.0000
vt 0.3762 0.7393 0.0000
vt 0.3762 0.7521 0.0000
vt 0.3762 0.7649 0.0000
vt 0.3762 0.7776 0.0000
vt 0.3762 0.7903 0.0000
vt 0.3762 0.8032 0.0000
vt 0.3762 0.8174 0.0000
vt 0.0805 0.7323 0.0000
vt 0.0914 0.7335 0.0000
vt 0.1124 0.6859 0.0000
vt 0.0699 0.6812 0.0000
vt 0.0996 0.7410 0.0000
vt 0.1441 0.7150 0.0000
vt 0.1018 0.7519 0.0000
vt 0.1529 0.7575 0.0000
vt 0.0973 0.7621 0.0000
vt 0.1354 0.7971 0.0000
vt 0.0878 0.7677 0.0000
vt 0.0984 0.8188 0.0000
vt 0.0769 0.7665 0.0000
vt 0.0559 0.8141 0.0000
vt 0.0687 0.7590 0.0000
vt 0.0242 0.7850 0.0000
vt 0.0664 0.7481 0.0000
vt 0.0154 0.7425 0.0000
vt 0.0709 0.7379 0.0000
vt 0.0328 0.7029 0.0000
vt 0.0279 0.3815 0.0000
vt 0.3464 0.3815 0.0000
vt 0.3464 0.6285 0.0000
vt 0.0279 0.6285 0.0000
vt 0.1870 0.9693 0.0000
vt 0.2800 0.9693 0.0000
vt 0.2800 0.9254 0.0000
vt 0.1870 0.9254 0.0000
vt 0.9497 0.7630 0.0000
vt 0.9771 0.8473 0.0000
vt 0.8679 0.8475 0.0000
vt 0.8618 0.8292 0.0000
vt 0.9506 0.9318 0.0000
vt 0.8620 0.8659 0.0000
vt 0.8805 0.9839 0.0000
vt 0.8462 0.8773 0.0000
vt 0.7937 0.9842 0.0000
vt 0.8267 0.8774 0.0000
vt 0.7230 0.9324 0.0000
vt 0.8109 0.8662 0.0000
vt 0.6956 0.8481 0.0000
vt 0.8048 0.8479 0.0000
vt 0.7221 0.7636 0.0000
vt 0.8108 0.8295 0.0000
vt 0.7922 0.7115 0.0000
vt 0.8265 0.8181 0.0000
vt 0.8790 0.7112 0.0000
vt 0.8460 0.8180 0.0000
vt 0.4802 0.9670 0.0000
vt 0.5132 0.9670 0.0000
vt 0.5132 0.9211 0.0000
vt 0.4802 0.9211 0.0000
vt 0.6867 0.0353 -1.6938
vt 0.6867 0.2060 5.0283
vt 0.6100 0.1824 -5.0283
vt 0.6100 0.0497 -5.0283
vt 0.7699 0.0497 -5.0283
vt 0.7699 0.1824 -5.0283
vt 0.1078 0.0359 -1.6940
vt 0.1078 0.2066 5.0288
vt 0.0311 0.1839 -5.0288
vt 0.0311 0.0512 -5.0288
vt 0.1910 0.0512 -5.0288
vt 0.1910 0.1839 -5.0288
vt 0.4983 0.0359 -1.6938
vt 0.4983 0.2066 5.0284
vt 0.4212 0.1839 -5.0284
vt 0.4212 0.0512 -5.0284
vt 0.5814 0.0512 -5.0284
vt 0.5814 0.1839 -5.0284
vt 0.8817 0.0353 -1.6940
vt 0.8817 0.2060 5.0288
vt 0.8045 0.1824 -5.0288
vt 0.8045 0.0497 -5.0288
vt 0.9629 0.0497 -5.0288
vt 0.9629 0.1824 -5.0288
vt 0.3027 0.0359 -1.6938
vt 0.3027 0.2066 5.0283
vt 0.2256 0.1839 -5.0283
vt 0.2256 0.0512 -5.0283
vt 0.3839 0.0512 -5.0283
vt 0.3839 0.1839 -5.0283
# 150 texture coords

g Cylinder001
usemtl Material__25
s 8
f 1/1/1 2/2/2 3/3/2 4/4/1 
f 2/2/2 5/1/3 6/4/3 3/3/2 
f 5/1/3 7/2/4 8/3/4 6/4/3 
f 7/2/4 9/1/5 10/4/5 8/3/4 
f 9/1/5 11/2/6 12/3/6 10/4/5 
f 11/2/6 13/1/7 14/4/7 12/3/6 
f 13/1/7 15/2/8 16/3/8 14/4/7 
f 15/2/8 17/1/9 18/4/9 16/3/8 
f 17/1/9 19/2/10 20/3/10 18/4/9 
f 19/2/10 1/1/1 4/4/1 20/3/10 
s 1
f 21/5/11 22/6/11 23/7/11 24/8/11 
f 21/5/11 24/8/11 25/9/11 26/10/11 
f 21/5/11 26/10/11 27/11/11 28/12/11 
f 21/5/11 28/12/11 29/13/11 30/14/11 
f 21/5/11 30/14/11 31/15/11 22/6/11 
s off
f 4/16/12 3/17/12 32/18/12 33/19/12 
f 3/17/13 6/20/13 34/21/13 32/18/13 
f 6/20/14 8/22/14 35/23/14 34/21/14 
f 8/22/15 10/24/15 36/25/15 35/23/15 
f 10/24/16 12/26/16 37/27/16 36/25/16 
f 12/26/17 14/28/17 38/29/17 37/27/17 
f 14/28/18 16/30/18 39/31/18 38/29/18 
f 16/30/19 18/32/19 40/33/19 39/31/19 
f 18/32/20 20/34/20 41/35/20 40/33/20 
f 20/34/21 4/16/21 33/19/21 41/35/21 
f 33/36/22 32/37/22 42/38/22 43/39/22 
f 32/37/23 34/40/23 44/41/23 42/38/23 
f 34/40/24 35/42/24 45/43/24 44/41/24 
f 35/42/25 36/44/25 46/45/25 45/43/25 
f 36/44/26 37/46/26 47/47/26 46/45/26 
f 37/46/27 38/48/27 48/49/27 47/47/27 
f 38/48/28 39/50/28 49/51/28 48/49/28 
f 39/50/29 40/52/29 50/53/29 49/51/29 
f 40/52/30 41/54/30 51/55/30 50/53/30 
f 41/54/31 33/56/31 43/57/31 51/55/31 
f 43/39/32 42/38/32 52/58/32 53/59/32 
f 42/38/33 44/41/33 54/60/33 52/58/33 
f 44/41/34 45/43/34 55/61/34 54/60/34 
f 45/43/35 46/45/35 56/62/35 55/61/35 
f 46/45/36 47/47/36 57/63/36 56/62/36 
f 47/47/37 48/49/37 58/64/37 57/63/37 
f 48/49/38 49/51/38 59/65/38 58/64/38 
f 49/51/39 50/53/39 60/66/39 59/65/39 
f 50/53/40 51/55/40 61/67/40 60/66/40 
f 51/55/41 43/57/41 53/68/41 61/67/41 
f 53/69/42 52/70/42 62/71/42 63/72/42 
f 52/70/43 54/73/43 64/74/43 62/71/43 
f 54/73/44 55/75/44 65/76/44 64/74/44 
f 55/75/45 56/77/45 66/78/45 65/76/45 
f 56/77/46 57/79/46 67/80/46 66/78/46 
f 57/79/47 58/81/47 68/82/47 67/80/47 
f 58/81/48 59/83/48 69/84/48 68/82/48 
f 59/83/49 60/85/49 70/86/49 69/84/49 
f 60/85/50 61/87/50 71/88/50 70/86/50 
f 61/87/51 53/69/51 63/72/51 71/88/51 
f 63/89/52 62/90/52 72/91/52 73/92/52 
f 62/90/53 64/89/53 74/92/53 72/91/53 
f 64/89/54 65/90/54 75/91/54 74/92/54 
f 65/90/55 66/89/55 76/92/55 75/91/55 
f 66/89/56 67/90/56 77/91/56 76/92/56 
f 67/90/57 68/89/57 78/92/57 77/91/57 
f 68/89/58 69/90/58 79/91/58 78/92/58 
f 69/90/59 70/89/59 80/92/59 79/91/59 
f 70/89/60 71/90/60 81/91/60 80/92/60 
f 71/90/61 63/89/61 73/92/61 81/91/61 
f 73/93/62 72/94/62 82/95/62 83/96/62 
f 72/94/63 74/93/63 84/96/63 82/95/63 
f 74/93/64 75/94/64 85/95/64 84/96/64 
f 75/94/65 76/93/65 86/96/65 85/95/65 
f 76/93/66 77/94/66 87/95/66 86/96/66 
f 77/94/67 78/93/67 88/96/67 87/95/67 
f 78/93/68 79/94/68 89/95/68 88/96/68 
f 79/94/69 80/93/69 90/96/69 89/95/69 
f 80/93/70 81/94/70 91/95/70 90/96/70 
f 81/94/71 73/93/71 83/96/71 91/95/71 
f 83/97/72 82/98/72 92/99/72 93/100/72 
f 82/98/73 84/101/73 94/102/73 92/99/73 
f 84/101/74 85/103/74 95/104/74 94/102/74 
f 85/103/75 86/105/75 96/106/75 95/104/75 
f 86/105/76 87/107/76 97/108/76 96/106/76 
f 87/107/77 88/109/77 98/110/77 97/108/77 
f 88/109/78 89/111/78 99/112/78 98/110/78 
f 89/111/79 90/113/79 100/114/79 99/112/79 
f 90/113/80 91/115/80 101/116/80 100/114/80 
f 91/115/81 83/97/81 93/100/81 101/116/81 
f 93/117/82 92/118/82 24/119/82 23/120/82 
f 92/118/83 94/117/83 25/120/83 24/119/83 
f 94/117/84 95/118/84 26/119/84 25/120/84 
f 95/118/85 96/117/85 27/120/85 26/119/85 
f 96/117/86 97/118/86 28/119/86 27/120/86 
f 97/118/87 98/117/87 29/120/87 28/119/87 
f 98/117/88 99/118/88 30/119/88 29/120/88 
f 99/118/89 100/117/89 31/120/89 30/119/89 
f 100/117/90 101/118/90 22/119/90 31/120/90 
f 101/118/91 93/117/91 23/120/91 22/119/91 
s 1
f 102/121/92 103/122/93 104/123/94 105/124/95 
f 106/125/96 107/126/97 103/122/93 102/121/92 
f 108/127/98 109/128/99 110/129/100 111/130/101 
f 112/131/102 113/132/103 109/128/99 108/127/98 
f 114/133/104 115/134/105 116/135/106 117/136/107 
f 118/137/108 119/138/109 115/134/105 114/133/104 
f 120/139/110 121/140/111 122/141/112 123/142/113 
f 124/143/114 125/144/115 121/140/111 120/139/110 
f 126/145/116 127/146/117 128/147/118 129/148/119 
f 130/149/120 131/150/121 127/146/117 126/145/116 
# 105 polygons

