<!-- Generator: Adobe Illustrator 17.0.0, SVG Export Plug-In  -->
<svg version="1.1"
	 xmlns="http://www.w3.org/2000/svg" xmlns:xlink="http://www.w3.org/1999/xlink" xmlns:a="http://ns.adobe.com/AdobeSVGViewerExtensions/3.0/"
	 x="0px" y="0px" width="12.752px" height="14.899px" viewBox="0 0 12.752 14.899" enable-background="new 0 0 12.752 14.899"
	 xml:space="preserve">
<defs>
</defs>
<g>
	<path fill="#CC6969" d="M9.207,0.825c0,0,2.767-1.035,3.403,2.471c0.637,3.505-0.902,7.57-3.888,8.084
		c-0.073,0.012,0.179-0.251,0.179-0.251S11.311,3.019,9.207,0.825z"/>
	<path fill="#CC6969" d="M3.729,0.741c0,0-2.755-1.07-3.436,2.427c-1.409,7.246,2.667,7.796,3.518,8.048
		c0.103,0.03,0.04-0.004,0.04-0.004S1.597,2.909,3.729,0.741z"/>
	
		<rect x="1.229" y="1.709" transform="matrix(0.9995 -0.033 0.033 0.9995 -0.0647 0.05)" fill="#FFFFFF" width="0.502" height="0.547"/>
	
		<rect x="1.049" y="3.128" transform="matrix(0.9994 -0.0351 0.0351 0.9994 -0.1186 0.0477)" fill="#FFFFFF" width="0.501" height="0.547"/>
	
		<rect x="0.868" y="4.548" transform="matrix(0.9994 -0.0348 0.0348 0.9994 -0.1673 0.0419)" fill="#FFFFFF" width="0.502" height="0.547"/>
	
		<rect x="0.688" y="5.968" transform="matrix(0.9994 -0.035 0.035 0.9994 -0.2182 0.0367)" fill="#FFFFFF" width="0.502" height="0.547"/>
	
		<rect x="2.617" y="0.933" transform="matrix(0.9994 -0.0332 0.0332 0.9994 -0.0385 0.0958)" fill="#FFFFFF" width="0.5" height="0.546"/>
	
		<rect x="2.436" y="2.353" transform="matrix(0.9994 -0.0332 0.0332 0.9994 -0.0857 0.0906)" fill="#FFFFFF" width="0.5" height="0.546"/>
	
		<rect x="2.256" y="3.773" transform="matrix(0.9995 -0.0331 0.0331 0.9995 -0.1326 0.0852)" fill="#FFFFFF" width="0.501" height="0.546"/>
	
		<rect x="2.075" y="5.192" transform="matrix(0.9994 -0.0351 0.0351 0.9994 -0.1904 0.085)" fill="#FFFFFF" width="0.501" height="0.547"/>
	
		<rect x="2.032" y="6.608" transform="matrix(0.9994 -0.0332 0.0332 0.9994 -0.2271 0.0795)" fill="#FFFFFF" width="0.5" height="0.546"/>
	
		<rect x="1.852" y="8.027" transform="matrix(0.9994 -0.0332 0.0332 0.9994 -0.2743 0.0743)" fill="#FFFFFF" width="0.5" height="0.547"/>
	
		<rect x="1.358" y="9.314" transform="matrix(0.9995 -0.0331 0.0331 0.9995 -0.3166 0.0585)" fill="#FFFFFF" width="0.501" height="0.547"/>
	
		<rect x="0.332" y="7.701" transform="matrix(0.9994 -0.0332 0.0332 0.9994 -0.2643 0.0237)" fill="#FFFFFF" width="0.5" height="0.547"/>
	
		<rect x="11.674" y="7.342" transform="matrix(0.9995 -0.0311 0.0311 0.9995 -0.2312 0.3748)" fill="#FFFFFF" width="0.501" height="0.546"/>
	
		<rect x="2.755" y="9.138" transform="matrix(0.9995 -0.0311 0.0311 0.9995 -0.2914 0.0981)" fill="#FFFFFF" width="0.501" height="0.546"/>
	<path fill="#B5C7F7" d="M3.567,11.17c-0.258,0.03-0.76-2.935-0.81-3.216C2.355,5.752,2.086,3.315,3.233,1.29
		c0.276-0.488,0.625-1.019,1.187-1.203c0.725-0.238,2.202-0.01,2.158,0.945c-0.037,0.824-0.09,1.7-0.156,2.534
		c-0.18,2.25-0.183,4.517-0.3,6.77c-0.006,0.095-0.023,1.611-0.066,1.616C6.053,11.954,3.567,11.17,3.567,11.17z"/>
	<path fill="#B5C7F7" d="M8.77,11.315c0.27,0.054,0.965-2.81,1.042-3.086c0.603-2.159,1.086-4.564,0.028-6.686
		C9.585,1.032,9.256,0.472,8.674,0.237C7.922-0.067,6.334,0.029,6.303,0.984C6.277,1.809,6.262,2.687,6.266,3.526
		C6.277,5.784,6.098,8.043,6.043,10.3c-0.003,0.096-0.104,1.608-0.06,1.617C5.985,11.918,8.769,11.315,8.77,11.315z"/>
	<path fill="#CC6969" d="M6.237,10.579C6.27,10.521,4.716,7.622,4.615,7.38C4.056,6.074,3.167,3.969,3.9,2.536
		c0.834-1.631,2.777-0.214,2.301,1.529c0.218-0.798,0.533-1.727,1.165-2C8.39,1.622,9.179,2.956,9.021,4.107
		c-0.259,1.897-1.413,3.83-2.223,5.401C6.612,9.869,6.435,10.232,6.237,10.579z"/>
	
		<rect x="11.428" y="1.868" transform="matrix(-0.9944 -0.1054 0.1054 -0.9944 23.0667 5.5023)" fill="#FFFFFF" width="0.501" height="0.547"/>
	
		<rect x="11.505" y="3.298" transform="matrix(-0.9945 -0.105 0.105 -0.9945 23.0729 8.3562)" fill="#FFFFFF" width="0.502" height="0.546"/>
	
		<rect x="11.583" y="4.726" transform="matrix(-0.9943 -0.107 0.107 -0.9943 23.0643 11.2363)" fill="#FFFFFF" width="0.502" height="0.547"/>
	
		<rect x="11.66" y="6.155" transform="matrix(-0.9945 -0.105 0.105 -0.9945 23.0806 14.0724)" fill="#FFFFFF" width="0.502" height="0.547"/>
	
		<rect x="10.1" y="0.993" transform="matrix(-0.9942 -0.1072 0.1072 -0.9942 20.5059 3.6361)" fill="#FFFFFF" width="0.502" height="0.547"/>
	
		<rect x="10.177" y="2.423" transform="matrix(-0.9944 -0.1052 0.1052 -0.9944 20.515 6.4747)" fill="#FFFFFF" width="0.502" height="0.547"/>
	
		<rect x="10.255" y="3.852" transform="matrix(-0.9942 -0.1072 0.1072 -0.9942 20.5082 9.3531)" fill="#FFFFFF" width="0.502" height="0.547"/>
	
		<rect x="10.332" y="5.281" transform="matrix(-0.9944 -0.1052 0.1052 -0.9944 20.522 12.1919)" fill="#FFFFFF" width="0.502" height="0.547"/>
	
		<rect x="10.273" y="6.696" transform="matrix(-0.9943 -0.107 0.107 -0.9943 20.2419 15.0243)" fill="#FFFFFF" width="0.502" height="0.547"/>
	
		<rect x="10.351" y="8.125" transform="matrix(-0.9945 -0.105 0.105 -0.9945 20.2628 17.8635)" fill="#FFFFFF" width="0.502" height="0.547"/>
	
		<rect x="9.519" y="9.479" transform="matrix(-0.9943 -0.107 0.107 -0.9943 18.4406 20.4941)" fill="#FFFFFF" width="0.502" height="0.547"/>
	
		<rect x="10.799" y="9.159" transform="matrix(-0.9947 -0.1032 0.1032 -0.9947 21.066 19.9544)" fill="#FFFFFF" width="0.501" height="0.547"/>
	<polygon fill="#777676" points="5.537,13.371 5.379,13.302 5.368,11.13 5.524,11.2 	"/>
	<polygon fill="#777676" points="7.025,13.47 6.868,13.401 6.856,11.229 7.012,11.298 	"/>
	<path fill="#00C0A2" d="M3.474,11.129c0,0,2.527-0.636,5.406,0.047c0,0-0.697,0.898-2.47,0.941
		C4.268,12.169,3.474,11.129,3.474,11.129z"/>
	<polygon fill="#777676" points="5.519,13.393 5.353,13.437 3.459,11.106 3.729,11.063 	"/>
	<polygon fill="#777676" points="7.168,13.552 6.921,13.53 8.726,11.177 8.894,11.218 	"/>
	<rect x="6.085" y="10.836" fill="#777676" width="0.183" height="2.568"/>
	<rect x="5.02" y="13.272" fill="#876851" width="2.461" height="1.627"/>
	<rect x="4.783" y="13.411" fill="#A88974" width="2.895" height="0.556"/>
	<rect x="5.37" y="14.2" fill="#A88974" width="0.313" height="0.425"/>
	<rect x="6.096" y="14.204" fill="#A88974" width="0.313" height="0.426"/>
	<rect x="6.832" y="14.193" fill="#A88974" width="0.312" height="0.425"/>
</g>
</svg>
